<svg xmlns="http://www.w3.org/2000/svg" xmlns:xlink="http://www.w3.org/1999/xlink" fill="none" version="1.1" width="28" height="28" viewBox="0 0 28 28"><defs><clipPath id="master_svg0_2_13707/2_6852"><rect x="0" y="0" width="28" height="28" rx="8"/></clipPath><clipPath id="master_svg1_2_13707/2_6853"><rect x="4" y="4" width="20" height="20" rx="0"/></clipPath></defs><g clip-path="url(#master_svg0_2_13707/2_6852)"><g clip-path="url(#master_svg1_2_13707/2_6853)"><path d="M20.37700615576172,6.5L7.6484909557617184,6.5C6.695365785761719,6.5,5.918022155761719,7.27929676,5.918022155761719,8.2304689L5.918022155761719,18.474609C5.918022155761719,19.427733,6.697319035761719,20.205077,7.6484909557617184,20.205077L11.484428355761718,20.205077L12.687553355761718,22.007812C12.996147155761719,22.470702,13.492241355761719,22.703123,13.986381555761719,22.703123C14.482475255761718,22.703123,14.978569055761719,22.470701,15.287162755761718,22.005857L16.486382155761717,20.205076L20.377007155761717,20.205076C21.330132155761717,20.205076,22.10747515576172,19.425778,22.10747515576172,18.474607L22.10747515576172,8.2324219C22.10942815576172,7.27929676,21.33013115576172,6.5,20.37700615576172,6.5ZM20.70317815576172,18.474609C20.70317815576172,18.650391,20.554741155761718,18.798827,20.378960155761717,18.798827L16.48638115576172,18.798827C16.01567815576172,18.798827,15.576225255761718,19.035154,15.31645865576172,19.425779L14.11724095576172,21.228516C14.105522155761719,21.248047,14.070364955761718,21.298827,13.988334655761719,21.298827C13.904350255761718,21.298827,13.87114665576172,21.248047,13.859427955761719,21.230468000000002L12.656302955761719,19.427733C12.39458415576172,19.037108,11.95708415576172,18.802733,11.486381055761719,18.802733L7.6484909557617184,18.802733C7.472709655761719,18.802733,7.3242720557617185,18.654297,7.3242720557617185,18.478516L7.3242720557617185,8.2324219C7.3242720557617185,8.0566406,7.472709655761719,7.9082029,7.6484909557617184,7.9082029L20.37700615576172,7.9082029C20.552788155761718,7.9082029,20.701224155761718,8.0566406,20.701224155761718,8.2324219L20.701224155761718,18.474609L20.70317815576172,18.474609Z" fill="#000000" fill-opacity="0.8799999952316284"/><path d="M14.703178180761718,10.248046875L13.296928180761718,10.248046875L13.296928180761718,12.689453075L10.810600280761719,12.689453075L10.810600280761719,14.095703575L13.296928180761718,14.095703575L13.296928180761718,16.498047375L14.703178180761718,16.498047375L14.703178180761718,14.095703575L17.183647180761717,14.095703575L17.183647180761717,12.689453075L14.703178180761718,12.689453075L14.703178180761718,10.248046875Z" fill="#000000" fill-opacity="0.8799999952316284"/></g></g></svg>